<?xml version="1.0" encoding="UTF-8" standalone="no"?>
<!DOCTYPE svg PUBLIC "-//W3C//DTD SVG 1.1//EN" "http://www.w3.org/Graphics/SVG/1.1/DTD/svg11.dtd">
<svg version="1.1" xmlns="http://www.w3.org/2000/svg" xmlns:xlink="http://www.w3.org/1999/xlink" preserveAspectRatio="xMidYMid meet" viewBox="-1 -1 516 516" width="512" height="512"><defs><path d="M256 0C114.62 0 0 114.62 0 256C0 397.38 114.62 512 256 512C397.38 512 512 397.38 512 256C512 114.62 397.38 0 256 0Z" id="jbdFFIOs4h"></path><path d="M505.48 198.34C500.21 193.07 473.86 166.72 426.44 119.3L359.47 185.35L291.93 119.3L213.62 181.41L146.34 119.3L143.39 392.7C214.92 464.23 254.66 503.97 262.61 511.92C400.94 508.41 512 395.18 512 256C512 236.17 509.74 216.87 505.48 198.34Z" id="chZlLNtfy"></path><path d="M426.44 119.3L376.22 392.7L307.99 392.7L257.37 211.26L211.47 392.7L143.39 392.7L87.12 119.3L146.34 119.3L179.75 281.63L220.81 119.3L291.93 119.3L337.48 282.57L367.47 119.3L426.44 119.3Z" id="e29ovRrL3Q"></path><path d="M426.44 119.3L376.22 392.7L307.99 392.7L257.37 211.26L256 119.3L291.93 119.3L337.48 282.57L367.47 119.3L426.44 119.3Z" id="d35AkohIVv"></path></defs><g><g><use xlink:href="#jbdFFIOs4h" opacity="1" fill="#ffc107" fill-opacity="1"></use><g><use xlink:href="#jbdFFIOs4h" opacity="1" fill-opacity="0" stroke="#000000" stroke-width="1" stroke-opacity="0"></use></g></g><g><use xlink:href="#chZlLNtfy" opacity="1" fill="#edb407" fill-opacity="1"></use><g><use xlink:href="#chZlLNtfy" opacity="1" fill-opacity="0" stroke="#000000" stroke-width="1" stroke-opacity="0"></use></g></g><g><use xlink:href="#e29ovRrL3Q" opacity="1" fill="#f8fffb" fill-opacity="1"></use><g><use xlink:href="#e29ovRrL3Q" opacity="1" fill-opacity="0" stroke="#000000" stroke-width="1" stroke-opacity="0"></use></g></g><g><use xlink:href="#d35AkohIVv" opacity="1" fill="#f8fffb" fill-opacity="1"></use><g><use xlink:href="#d35AkohIVv" opacity="1" fill-opacity="0" stroke="#000000" stroke-width="1" stroke-opacity="0"></use></g></g></g></svg>