<?xml version="1.0" standalone="no"?>
<!DOCTYPE svg PUBLIC "-//W3C//DTD SVG 20010904//EN"
 "http://www.w3.org/TR/2001/REC-SVG-20010904/DTD/svg10.dtd">
<svg version="1.0" xmlns="http://www.w3.org/2000/svg"
 width="700.000000pt" height="700.000000pt" viewBox="0 0 700.000000 700.000000"
 preserveAspectRatio="xMidYMid meet">
<metadata>
Created by potrace 1.11, written by Peter Selinger 2001-2013
</metadata>
<g transform="translate(0.000000,700.000000) scale(0.100000,-0.100000)"
fill="#000000" stroke="none">
<path d="M3190 6974 c-357 -41 -574 -87 -845 -181 -654 -228 -1223 -645 -1646
-1210 -332 -443 -563 -995 -643 -1540 -56 -376 -51 -789 14 -1148 198 -1092
912 -2030 1912 -2510 364 -175 732 -278 1163 -327 166 -19 601 -16 759 5 964
129 1781 602 2359 1364 365 483 589 1037 674 1669 24 184 24 657 -1 839 -151
1110 -774 2045 -1731 2595 -375 217 -798 360 -1255 426 -109 15 -665 29 -760
18z m-1186 -1631 c3 -16 103 -498 221 -1073 118 -575 217 -1056 221 -1070 8
-30 -13 -108 312 1180 l249 985 484 3 484 2 305 -1095 c168 -602 307 -1095
310 -1095 3 0 61 305 129 678 68 372 158 864 200 1092 l76 415 404 3 403 2 -6
-27 c-3 -16 -152 -827 -331 -1803 -179 -976 -330 -1799 -336 -1827 l-10 -53
-464 0 -464 0 -14 48 c-8 26 -162 577 -343 1225 -181 648 -330 1173 -333 1165
-3 -7 -143 -557 -311 -1223 l-307 -1210 -463 0 -463 0 -378 1835 c-208 1009
-378 1843 -379 1853 0 16 26 17 399 17 l399 0 6 -27z"/>
</g>
</svg>
