<?xml version="1.0" standalone="no"?>
<!DOCTYPE svg PUBLIC "-//W3C//DTD SVG 20010904//EN"
 "http://www.w3.org/TR/2001/REC-SVG-20010904/DTD/svg10.dtd">
<svg version="1.0" xmlns="http://www.w3.org/2000/svg"
 width="700.000000pt" height="700.000000pt" viewBox="0 0 700.000000 700.000000"
 preserveAspectRatio="xMidYMid meet">
<metadata>
Created by potrace 1.11, written by Peter Selinger 2001-2013
</metadata>
<g transform="translate(0.000000,700.000000) scale(0.100000,-0.100000)"
fill="#000000" stroke="none">
<path d="M3280 6993 c-641 -48 -1201 -237 -1715 -578 -189 -126 -332 -242
-504 -410 -334 -326 -578 -675 -760 -1087 -430 -972 -394 -2097 97 -3038 170
-325 357 -576 636 -855 177 -177 333 -307 514 -428 776 -522 1727 -711 2652
-527 1363 272 2455 1364 2730 2730 53 261 64 379 64 690 1 370 -26 592 -109
900 -172 634 -481 1161 -946 1615 -596 582 -1331 913 -2184 985 -111 9 -371
11 -475 3z m-1278 -1635 c3 -7 105 -505 229 -1105 135 -657 227 -1086 231
-1075 7 15 150 578 462 1817 l93 370 488 0 489 0 306 -1095 c168 -602 308
-1101 310 -1107 3 -7 33 141 68 330 239 1304 303 1656 322 1760 l22 117 405 0
405 0 -5 -27 c-3 -16 -157 -857 -344 -1870 l-338 -1843 -467 0 -467 0 -20 67
c-11 38 -165 588 -342 1223 -176 635 -324 1160 -328 1167 -3 6 -143 -529 -310
-1190 -167 -661 -308 -1217 -313 -1234 l-9 -33 -464 0 -465 0 -5 23 c-3 12
-174 843 -380 1847 -206 1004 -377 1835 -380 1848 l-5 22 404 0 c314 0 405 -3
408 -12z"/>
</g>
</svg>
