<?xml version="1.0" encoding="UTF-8"?>
<!DOCTYPE svg
PUBLIC "-//W3C//DTD SVG 1.1//EN"
       "http://www.w3.org/Graphics/SVG/1.1/DTD/svg11.dtd">
<svg viewBox="55 -5 1555 735" width="1500px" height="740px" xmlns="http://www.w3.org/2000/svg" version="1.1">
   <line x1="790" y1="489" x2="800" y2="489" style="stroke:#bbb;stroke-width:1;"/>
   <line x1="1360" y1="70" x2="1370" y2="70" style="stroke:#bbb;stroke-width:1;"/>
   <line x1="800" y1="489" x2="1360" y2="70" style="stroke:#bbb;stroke-width:1;"/>
   <line x1="797.5" y1="489" x2="793.96446609407" y2="492.53553390593" style="stroke:#bbb;stroke-width:2;"/>
   <line x1="797.5" y1="489" x2="793.96446609407" y2="485.46446609407" style="stroke:#bbb;stroke-width:2;"/>
   <line x1="1365" y1="70" x2="1361.4644660941" y2="73.535533905933" style="stroke:#bbb;stroke-width:2;"/>
   <line x1="1365" y1="70" x2="1361.4644660941" y2="66.464466094067" style="stroke:#bbb;stroke-width:2;"/>
   <line x1="290" y1="530" x2="280" y2="530" style="stroke:#c00;stroke-width:1;"/>
   <line x1="162" y1="350" x2="152" y2="350" style="stroke:#c00;stroke-width:1;"/>
   <line x1="280" y1="530" x2="162" y2="350" style="stroke:#c00;stroke-width:1;"/>
   <line x1="282.5" y1="530" x2="286.03553390593" y2="533.53553390593" style="stroke:#c00;stroke-width:2;"/>
   <line x1="282.5" y1="530" x2="286.03553390593" y2="526.46446609407" style="stroke:#c00;stroke-width:2;"/>
   <line x1="157" y1="350" x2="160.53553390593" y2="353.53553390593" style="stroke:#c00;stroke-width:2;"/>
   <line x1="157" y1="350" x2="160.53553390593" y2="346.46446609407" style="stroke:#c00;stroke-width:2;"/>
   <line x1="483" y1="690" x2="493" y2="690" style="stroke:#0b0;stroke-width:1;"/>
   <line x1="612" y1="449" x2="622" y2="449" style="stroke:#0b0;stroke-width:1;"/>
   <line x1="493" y1="690" x2="612" y2="449" style="stroke:#0b0;stroke-width:1;"/>
   <line x1="490.5" y1="690" x2="486.96446609407" y2="693.53553390593" style="stroke:#0b0;stroke-width:2;"/>
   <line x1="490.5" y1="690" x2="486.96446609407" y2="686.46446609407" style="stroke:#0b0;stroke-width:2;"/>
   <line x1="617" y1="449" x2="613.46446609407" y2="452.53553390593" style="stroke:#0b0;stroke-width:2;"/>
   <line x1="617" y1="449" x2="613.46446609407" y2="445.46446609407" style="stroke:#0b0;stroke-width:2;"/>
   <line x1="290" y1="710" x2="280" y2="710" style="stroke:#0b0;stroke-width:1;"/>
   <line x1="280" y1="510" x2="290" y2="510" style="stroke:#0b0;stroke-width:1;"/>
   <line x1="280" y1="710" x2="280" y2="510" style="stroke:#0b0;stroke-width:1;"/>
   <line x1="282.5" y1="710" x2="286.03553390593" y2="713.53553390593" style="stroke:#0b0;stroke-width:2;"/>
   <line x1="282.5" y1="710" x2="286.03553390593" y2="706.46446609407" style="stroke:#0b0;stroke-width:2;"/>
   <line x1="285" y1="510" x2="281.46446609407" y2="513.53553390593" style="stroke:#0b0;stroke-width:2;"/>
   <line x1="285" y1="510" x2="281.46446609407" y2="506.46446609407" style="stroke:#0b0;stroke-width:2;"/>
   <line x1="70" y1="110" x2="60" y2="110" style="stroke:#333;stroke-width:1;"/>
   <line x1="61" y1="350" x2="71" y2="350" style="stroke:#333;stroke-width:1;"/>
   <line x1="60" y1="110" x2="61" y2="350" style="stroke:#333;stroke-width:1;"/>
   <line x1="62.5" y1="110" x2="66.035533905933" y2="113.53553390593" style="stroke:#333;stroke-width:2;"/>
   <line x1="62.5" y1="110" x2="66.035533905933" y2="106.46446609407" style="stroke:#333;stroke-width:2;"/>
   <line x1="66" y1="350" x2="62.464466094067" y2="353.53553390593" style="stroke:#333;stroke-width:2;"/>
   <line x1="66" y1="350" x2="62.464466094067" y2="346.46446609407" style="stroke:#333;stroke-width:2;"/>
   <line x1="790" y1="170" x2="780" y2="170" style="stroke:#0b0;stroke-width:1;"/>
   <line x1="162" y1="350" x2="152" y2="350" style="stroke:#0b0;stroke-width:1;"/>
   <line x1="780" y1="170" x2="162" y2="350" style="stroke:#0b0;stroke-width:1;"/>
   <line x1="782.5" y1="170" x2="786.03553390593" y2="173.53553390593" style="stroke:#0b0;stroke-width:2;"/>
   <line x1="782.5" y1="170" x2="786.03553390593" y2="166.46446609407" style="stroke:#0b0;stroke-width:2;"/>
   <line x1="157" y1="350" x2="160.53553390593" y2="353.53553390593" style="stroke:#0b0;stroke-width:2;"/>
   <line x1="157" y1="350" x2="160.53553390593" y2="346.46446609407" style="stroke:#0b0;stroke-width:2;"/>
   <line x1="447" y1="60" x2="457" y2="60" style="stroke:#cb0;stroke-width:1;"/>
   <line x1="612" y1="449" x2="622" y2="449" style="stroke:#cb0;stroke-width:1;"/>
   <line x1="457" y1="60" x2="612" y2="449" style="stroke:#cb0;stroke-width:1;"/>
   <line x1="454.5" y1="60" x2="450.96446609407" y2="63.535533905933" style="stroke:#cb0;stroke-width:2;"/>
   <line x1="454.5" y1="60" x2="450.96446609407" y2="56.464466094067" style="stroke:#cb0;stroke-width:2;"/>
   <line x1="617" y1="449" x2="613.46446609407" y2="452.53553390593" style="stroke:#cb0;stroke-width:2;"/>
   <line x1="617" y1="449" x2="613.46446609407" y2="445.46446609407" style="stroke:#cb0;stroke-width:2;"/>
   <line x1="447" y1="80" x2="457" y2="80" style="stroke:#0b0;stroke-width:1;"/>
   <line x1="780" y1="130" x2="790" y2="130" style="stroke:#0b0;stroke-width:1;"/>
   <line x1="457" y1="80" x2="780" y2="130" style="stroke:#0b0;stroke-width:1;"/>
   <line x1="454.5" y1="80" x2="450.96446609407" y2="83.535533905933" style="stroke:#0b0;stroke-width:2;"/>
   <line x1="454.5" y1="80" x2="450.96446609407" y2="76.464466094067" style="stroke:#0b0;stroke-width:2;"/>
   <line x1="785" y1="130" x2="781.46446609407" y2="133.53553390593" style="stroke:#0b0;stroke-width:2;"/>
   <line x1="785" y1="130" x2="781.46446609407" y2="126.46446609407" style="stroke:#0b0;stroke-width:2;"/>
   <line x1="352" y1="100" x2="342" y2="100" style="stroke:#c00;stroke-width:1;"/>
   <line x1="162" y1="350" x2="152" y2="350" style="stroke:#c00;stroke-width:1;"/>
   <line x1="342" y1="100" x2="162" y2="350" style="stroke:#c00;stroke-width:1;"/>
   <line x1="344.5" y1="100" x2="348.03553390593" y2="103.53553390593" style="stroke:#c00;stroke-width:2;"/>
   <line x1="344.5" y1="100" x2="348.03553390593" y2="96.464466094067" style="stroke:#c00;stroke-width:2;"/>
   <line x1="157" y1="350" x2="160.53553390593" y2="353.53553390593" style="stroke:#c00;stroke-width:2;"/>
   <line x1="157" y1="350" x2="160.53553390593" y2="346.46446609407" style="stroke:#c00;stroke-width:2;"/>
   <line x1="910" y1="500" x2="900" y2="500" style="stroke:#cb0;stroke-width:1;"/>
   <line x1="800" y1="449" x2="790" y2="449" style="stroke:#cb0;stroke-width:1;"/>
   <line x1="900" y1="500" x2="800" y2="449" style="stroke:#cb0;stroke-width:1;"/>
   <line x1="902.5" y1="500" x2="906.03553390593" y2="503.53553390593" style="stroke:#cb0;stroke-width:2;"/>
   <line x1="902.5" y1="500" x2="906.03553390593" y2="496.46446609407" style="stroke:#cb0;stroke-width:2;"/>
   <line x1="795" y1="449" x2="798.53553390593" y2="452.53553390593" style="stroke:#cb0;stroke-width:2;"/>
   <line x1="795" y1="449" x2="798.53553390593" y2="445.46446609407" style="stroke:#cb0;stroke-width:2;"/>
   <line x1="1370" y1="310" x2="1360" y2="310" style="stroke:#333;stroke-width:1;"/>
   <line x1="800" y1="449" x2="790" y2="449" style="stroke:#333;stroke-width:1;"/>
   <line x1="1360" y1="310" x2="800" y2="449" style="stroke:#333;stroke-width:1;"/>
   <line x1="1362.5" y1="310" x2="1366.0355339059" y2="313.53553390593" style="stroke:#333;stroke-width:2;"/>
   <line x1="1362.5" y1="310" x2="1366.0355339059" y2="306.46446609407" style="stroke:#333;stroke-width:2;"/>
   <line x1="795" y1="449" x2="798.53553390593" y2="452.53553390593" style="stroke:#333;stroke-width:2;"/>
   <line x1="795" y1="449" x2="798.53553390593" y2="445.46446609407" style="stroke:#333;stroke-width:2;"/>
   <line x1="1370" y1="270" x2="1360" y2="270" style="stroke:#c00;stroke-width:1;"/>
   <line x1="1008" y1="480" x2="998" y2="480" style="stroke:#c00;stroke-width:1;"/>
   <line x1="1360" y1="270" x2="1008" y2="480" style="stroke:#c00;stroke-width:1;"/>
   <line x1="1362.5" y1="270" x2="1366.0355339059" y2="273.53553390593" style="stroke:#c00;stroke-width:2;"/>
   <line x1="1362.5" y1="270" x2="1366.0355339059" y2="266.46446609407" style="stroke:#c00;stroke-width:2;"/>
   <line x1="1003" y1="480" x2="1006.5355339059" y2="483.53553390593" style="stroke:#c00;stroke-width:2;"/>
   <line x1="1003" y1="480" x2="1006.5355339059" y2="476.46446609407" style="stroke:#c00;stroke-width:2;"/>
   <line x1="1370" y1="290" x2="1360" y2="290" style="stroke:#333;stroke-width:1;"/>
   <line x1="1008" y1="480" x2="998" y2="480" style="stroke:#333;stroke-width:1;"/>
   <line x1="1360" y1="290" x2="1008" y2="480" style="stroke:#333;stroke-width:1;"/>
   <line x1="1362.5" y1="290" x2="1366.0355339059" y2="293.53553390593" style="stroke:#333;stroke-width:2;"/>
   <line x1="1362.5" y1="290" x2="1366.0355339059" y2="286.46446609407" style="stroke:#333;stroke-width:2;"/>
   <line x1="1003" y1="480" x2="1006.5355339059" y2="483.53553390593" style="stroke:#333;stroke-width:2;"/>
   <line x1="1003" y1="480" x2="1006.5355339059" y2="476.46446609407" style="stroke:#333;stroke-width:2;"/>
   <line x1="1370" y1="330" x2="1360" y2="330" style="stroke:#c00;stroke-width:1;"/>
   <line x1="162" y1="350" x2="152" y2="350" style="stroke:#c00;stroke-width:1;"/>
   <line x1="1360" y1="330" x2="162" y2="350" style="stroke:#c00;stroke-width:1;"/>
   <line x1="1362.5" y1="330" x2="1366.0355339059" y2="333.53553390593" style="stroke:#c00;stroke-width:2;"/>
   <line x1="1362.5" y1="330" x2="1366.0355339059" y2="326.46446609407" style="stroke:#c00;stroke-width:2;"/>
   <line x1="157" y1="350" x2="160.53553390593" y2="353.53553390593" style="stroke:#c00;stroke-width:2;"/>
   <line x1="157" y1="350" x2="160.53553390593" y2="346.46446609407" style="stroke:#c00;stroke-width:2;"/>
   <line x1="1221" y1="660" x2="1231" y2="660" style="stroke:#c00;stroke-width:1;"/>
   <line x1="1360" y1="250" x2="1370" y2="250" style="stroke:#c00;stroke-width:1;"/>
   <line x1="1231" y1="660" x2="1360" y2="250" style="stroke:#c00;stroke-width:1;"/>
   <line x1="1228.5" y1="660" x2="1224.9644660941" y2="663.53553390593" style="stroke:#c00;stroke-width:2;"/>
   <line x1="1228.5" y1="660" x2="1224.9644660941" y2="656.46446609407" style="stroke:#c00;stroke-width:2;"/>
   <line x1="1365" y1="250" x2="1361.4644660941" y2="253.53553390593" style="stroke:#c00;stroke-width:2;"/>
   <line x1="1365" y1="250" x2="1361.4644660941" y2="246.46446609407" style="stroke:#c00;stroke-width:2;"/>
   <line x1="1100" y1="680" x2="1090" y2="680" style="stroke:#333;stroke-width:1;"/>
   <line x1="162" y1="350" x2="152" y2="350" style="stroke:#333;stroke-width:1;"/>
   <line x1="1090" y1="680" x2="162" y2="350" style="stroke:#333;stroke-width:1;"/>
   <line x1="1092.5" y1="680" x2="1096.0355339059" y2="683.53553390593" style="stroke:#333;stroke-width:2;"/>
   <line x1="1092.5" y1="680" x2="1096.0355339059" y2="676.46446609407" style="stroke:#333;stroke-width:2;"/>
   <line x1="157" y1="350" x2="160.53553390593" y2="353.53553390593" style="stroke:#333;stroke-width:2;"/>
   <line x1="157" y1="350" x2="160.53553390593" y2="346.46446609407" style="stroke:#333;stroke-width:2;"/>
   <line x1="1370" y1="90" x2="1360" y2="90" style="stroke:#c00;stroke-width:1;"/>
   <line x1="1105" y1="40" x2="1095" y2="40" style="stroke:#c00;stroke-width:1;"/>
   <line x1="1360" y1="90" x2="1105" y2="40" style="stroke:#c00;stroke-width:1;"/>
   <line x1="1362.5" y1="90" x2="1366.0355339059" y2="93.535533905933" style="stroke:#c00;stroke-width:2;"/>
   <line x1="1362.5" y1="90" x2="1366.0355339059" y2="86.464466094067" style="stroke:#c00;stroke-width:2;"/>
   <line x1="1100" y1="40" x2="1103.5355339059" y2="43.535533905933" style="stroke:#c00;stroke-width:2;"/>
   <line x1="1100" y1="40" x2="1103.5355339059" y2="36.464466094067" style="stroke:#c00;stroke-width:2;"/>
   <rect width="168" height="20" x="622" y="419" style="fill:#007;stroke:black;"/>
   <text width="168" height="20" x="627" y="433" style="fill:#fff;" font-family="Arial" font-size="16px"> inventory</text>
   <rect width="168" height="20" x="622" y="439" style="fill:#aea;stroke:black;"/>
   <text width="168" height="20" x="627" y="453" style="fill:black;" font-family="Arial" font-size="16px">id</text>
   <rect width="168" height="20" x="622" y="459" style="fill:none;stroke:black;"/>
   <text width="168" height="20" x="627" y="473" style="fill:black;" font-family="Arial" font-size="16px">SKU</text>
   <rect width="168" height="20" x="622" y="479" style="fill:none;stroke:black;"/>
   <text width="168" height="20" x="627" y="493" style="fill:black;" font-family="Arial" font-size="16px">warehouse_categoryId</text>
   <rect width="159" height="20" x="290" y="480" style="fill:#007;stroke:black;"/>
   <text width="159" height="20" x="295" y="494" style="fill:#fff;" font-family="Arial" font-size="16px"> inventory_transaction</text>
   <rect width="159" height="20" x="290" y="500" style="fill:#aea;stroke:black;"/>
   <text width="159" height="20" x="295" y="514" style="fill:black;" font-family="Arial" font-size="16px">id</text>
   <rect width="159" height="20" x="290" y="520" style="fill:none;stroke:black;"/>
   <text width="159" height="20" x="295" y="534" style="fill:black;" font-family="Arial" font-size="16px">userId</text>
   <rect width="193" height="20" x="290" y="640" style="fill:#007;stroke:black;"/>
   <text width="193" height="20" x="295" y="654" style="fill:#fff;" font-family="Arial" font-size="16px"> inventory_transaction_item</text>
   <rect width="193" height="20" x="290" y="660" style="fill:#aea;stroke:black;"/>
   <text width="193" height="20" x="295" y="674" style="fill:black;" font-family="Arial" font-size="16px">id</text>
   <rect width="193" height="20" x="290" y="680" style="fill:none;stroke:black;"/>
   <text width="193" height="20" x="295" y="694" style="fill:black;" font-family="Arial" font-size="16px">inventoryId</text>
   <rect width="193" height="20" x="290" y="700" style="fill:none;stroke:black;"/>
   <text width="193" height="20" x="295" y="714" style="fill:black;" font-family="Arial" font-size="16px">inventory_transactionId</text>
   <rect width="54" height="20" x="70" y="60" style="fill:#007;stroke:black;"/>
   <text width="54" height="20" x="75" y="74" style="fill:#fff;" font-family="Arial" font-size="16px"> log</text>
   <rect width="54" height="20" x="70" y="80" style="fill:#aea;stroke:black;"/>
   <text width="54" height="20" x="75" y="94" style="fill:black;" font-family="Arial" font-size="16px">id</text>
   <rect width="54" height="20" x="70" y="100" style="fill:none;stroke:black;"/>
   <text width="54" height="20" x="75" y="114" style="fill:black;" font-family="Arial" font-size="16px">userId</text>
   <rect width="54" height="20" x="790" y="100" style="fill:#007;stroke:black;"/>
   <text width="54" height="20" x="795" y="114" style="fill:#fff;" font-family="Arial" font-size="16px"> project</text>
   <rect width="54" height="20" x="790" y="120" style="fill:#aea;stroke:black;"/>
   <text width="54" height="20" x="795" y="134" style="fill:black;" font-family="Arial" font-size="16px">id</text>
   <rect width="54" height="20" x="790" y="140" style="fill:none;stroke:black;"/>
   <text width="54" height="20" x="795" y="154" style="fill:black;" font-family="Arial" font-size="16px">name</text>
   <rect width="54" height="20" x="790" y="160" style="fill:none;stroke:black;"/>
   <text width="54" height="20" x="795" y="174" style="fill:black;" font-family="Arial" font-size="16px">userId</text>
   <rect width="95" height="20" x="352" y="10" style="fill:#007;stroke:black;"/>
   <text width="95" height="20" x="357" y="24" style="fill:#fff;" font-family="Arial" font-size="16px"> project_item</text>
   <rect width="95" height="20" x="352" y="30" style="fill:#aea;stroke:black;"/>
   <text width="95" height="20" x="357" y="44" style="fill:black;" font-family="Arial" font-size="16px">id</text>
   <rect width="95" height="20" x="352" y="50" style="fill:none;stroke:black;"/>
   <text width="95" height="20" x="357" y="64" style="fill:black;" font-family="Arial" font-size="16px">inventoryId</text>
   <rect width="95" height="20" x="352" y="70" style="fill:none;stroke:black;"/>
   <text width="95" height="20" x="357" y="84" style="fill:black;" font-family="Arial" font-size="16px">projectId</text>
   <rect width="95" height="20" x="352" y="90" style="fill:none;stroke:black;"/>
   <text width="95" height="20" x="357" y="104" style="fill:black;" font-family="Arial" font-size="16px">userId</text>
   <rect width="88" height="20" x="910" y="450" style="fill:#007;stroke:black;"/>
   <text width="88" height="20" x="915" y="464" style="fill:#fff;" font-family="Arial" font-size="16px"> registry</text>
   <rect width="88" height="20" x="910" y="470" style="fill:#aea;stroke:black;"/>
   <text width="88" height="20" x="915" y="484" style="fill:black;" font-family="Arial" font-size="16px">id</text>
   <rect width="88" height="20" x="910" y="490" style="fill:none;stroke:black;"/>
   <text width="88" height="20" x="915" y="504" style="fill:black;" font-family="Arial" font-size="16px">inventoryId</text>
   <rect width="170" height="20" x="1370" y="220" style="fill:#007;stroke:black;"/>
   <text width="170" height="20" x="1375" y="234" style="fill:#fff;" font-family="Arial" font-size="16px"> report</text>
   <rect width="170" height="20" x="1370" y="240" style="fill:#aea;stroke:black;"/>
   <text width="170" height="20" x="1375" y="254" style="fill:black;" font-family="Arial" font-size="16px">id</text>
   <rect width="170" height="20" x="1370" y="260" style="fill:none;stroke:black;"/>
   <text width="170" height="20" x="1375" y="274" style="fill:black;" font-family="Arial" font-size="16px">faulty_registryId</text>
   <rect width="170" height="20" x="1370" y="280" style="fill:none;stroke:black;"/>
   <text width="170" height="20" x="1375" y="294" style="fill:black;" font-family="Arial" font-size="16px">replacement_registryId</text>
   <rect width="170" height="20" x="1370" y="300" style="fill:none;stroke:black;"/>
   <text width="170" height="20" x="1375" y="314" style="fill:black;" font-family="Arial" font-size="16px">inventoryId</text>
   <rect width="170" height="20" x="1370" y="320" style="fill:none;stroke:black;"/>
   <text width="170" height="20" x="1375" y="334" style="fill:black;" font-family="Arial" font-size="16px">assignee_userId</text>
   <rect width="121" height="20" x="1100" y="610" style="fill:#007;stroke:black;"/>
   <text width="121" height="20" x="1105" y="624" style="fill:#fff;" font-family="Arial" font-size="16px"> report_comment</text>
   <rect width="121" height="20" x="1100" y="630" style="fill:#aea;stroke:black;"/>
   <text width="121" height="20" x="1105" y="644" style="fill:black;" font-family="Arial" font-size="16px">id</text>
   <rect width="121" height="20" x="1100" y="650" style="fill:none;stroke:black;"/>
   <text width="121" height="20" x="1105" y="664" style="fill:black;" font-family="Arial" font-size="16px">reportId</text>
   <rect width="121" height="20" x="1100" y="670" style="fill:none;stroke:black;"/>
   <text width="121" height="20" x="1105" y="684" style="fill:black;" font-family="Arial" font-size="16px">userId</text>
   <rect width="81" height="20" x="71" y="320" style="fill:#007;stroke:black;"/>
   <text width="81" height="20" x="76" y="334" style="fill:#fff;" font-family="Arial" font-size="16px"> user</text>
   <rect width="81" height="20" x="71" y="340" style="fill:#aea;stroke:black;"/>
   <text width="81" height="20" x="76" y="354" style="fill:black;" font-family="Arial" font-size="16px">id</text>
   <rect width="81" height="20" x="71" y="360" style="fill:none;stroke:black;"/>
   <text width="81" height="20" x="76" y="374" style="fill:black;" font-family="Arial" font-size="16px">username</text>
   <rect width="85" height="20" x="1010" y="10" style="fill:#007;stroke:black;"/>
   <text width="85" height="20" x="1015" y="24" style="fill:#fff;" font-family="Arial" font-size="16px"> warehouse</text>
   <rect width="85" height="20" x="1010" y="30" style="fill:#aea;stroke:black;"/>
   <text width="85" height="20" x="1015" y="44" style="fill:black;" font-family="Arial" font-size="16px">id</text>
   <rect width="85" height="20" x="1010" y="50" style="fill:none;stroke:black;"/>
   <text width="85" height="20" x="1015" y="64" style="fill:black;" font-family="Arial" font-size="16px">name</text>
   <rect width="151" height="20" x="1370" y="40" style="fill:#007;stroke:black;"/>
   <text width="151" height="20" x="1375" y="54" style="fill:#fff;" font-family="Arial" font-size="16px"> warehouse_category</text>
   <rect width="151" height="20" x="1370" y="60" style="fill:#aea;stroke:black;"/>
   <text width="151" height="20" x="1375" y="74" style="fill:black;" font-family="Arial" font-size="16px">id</text>
   <rect width="151" height="20" x="1370" y="80" style="fill:none;stroke:black;"/>
   <text width="151" height="20" x="1375" y="94" style="fill:black;" font-family="Arial" font-size="16px">warehouseId</text>
   <rect width="151" height="20" x="1370" y="100" style="fill:none;stroke:black;"/>
   <text width="151" height="20" x="1375" y="114" style="fill:black;" font-family="Arial" font-size="16px">importName</text>
</svg>
